<svg xmlns="http://www.w3.org/2000/svg" width="950" height="950" viewBox="0 0 950 950"><g fill="#333"><path d="M0 517.352c0 13.21 8.243 25.02 20.644 29.57l56.5 20.742c4.25-10.152 10.482-19.666 18.734-27.918 16.486-16.486 38.406-25.566 61.722-25.566 23.315 0 45.235 9.08 61.722 25.566L392.237 712.66c24.33 24.33 31.256 59.563 20.8 90.115 25.14 18.41 58.865 21.584 87.34 7.268L738.185 690.48c38.854-19.532 54.917-64.05 41.763-102.336-.108 0-.22.004-.325.004-31.656 0-61.48-13.91-81.826-38.168L534.09 354.8l-23.118 23.117c-16.206 16.204-37.75 25.13-60.67 25.13-22.918 0-44.465-8.924-60.67-25.13l-7.884-7.885c-16.206-16.206-25.13-37.752-25.13-60.67 0-22.92 8.925-44.465 25.13-60.67l65.64-65.64-13.702-16.335c-25.05-30.156-67.626-38.977-102.594-21.253l-178.495 90.47L43.26 191.946C22.56 183.618.002 198.856.002 221.17v296.182H0zM950 504.524v-242.43c0-17.397-14.104-31.5-31.5-31.5H779L635.51 127.02c-14.77-10.66-31.996-15.89-49.138-15.89-21.646 0-43.158 8.34-59.424 24.604l-64.854 64.853-64.227 64.227c-24.604 24.603-24.604 64.493 0 89.096l7.884 7.885c12.302 12.302 28.426 18.452 44.55 18.452 16.123 0 32.246-6.15 44.547-18.452l40.716-40.715 179.7 214.248c13.397 15.975 31.973 26.096 51.915 29.086 4.103.615 8.26.936 12.44.936 6.004 0 12.06-.646 18.065-1.97l127.59-28.093c14.44-3.18 24.727-15.974 24.727-30.763zM284.914 819.983c12.592 12.593 29.096 18.888 45.6 18.888s33.01-6.294 45.6-18.887c9.827-9.825 15.8-22.036 17.96-34.768 3.373-19.898-2.602-41.074-17.96-56.434L203.2 555.87c-12.592-12.592-29.096-18.888-45.6-18.888s-33.008 6.296-45.6 18.888c-5.84 5.842-10.308 12.528-13.44 19.66-10.37 23.627-5.903 52.196 13.44 71.54l172.914 172.915z"/></g></svg>