<svg xmlns="http://www.w3.org/2000/svg" width="47.001" height="47.001" viewBox="0 0 47.001 47.001"><g><path d="M31.736 10.307c-.11-.112-.25-.193-.398-.24L22.363 7.25c-3.59-1.128-5.924.838-6.553 1.47-.367.366-.648.753-.792 1.09l-3.998 9.404c-.23.538-.15 1.255.208 1.97.514 1.02 1.44 1.757 2.547 2.022 1.24.297 2.524-.106 3.53-1.11.263-.264.487-.554.62-.8l1.343-2.493c.22-.413.542-.84.88-1.18 1.153-1.153 1.7-.625 1.934-.4 2.01 1.94 12.554 12.528 12.554 12.528.375.376.297 1.087-.172 1.555-.468.467-1.18.547-1.554.174l-2.962-2.962c-.382-.383-.998-.383-1.38 0-.382.38-.382.998 0 1.38l2.962 2.962c.374.373.296 1.084-.172 1.55-.468.47-1.18.548-1.553.175l-2.963-2.96c-.382-.383-1-.383-1.38 0-.382.378-.382.997 0 1.38l2.962 2.96c.374.375.293 1.086-.174 1.554-.467.466-1.178.546-1.553.17l-2.962-2.96c-.38-.38-1-.38-1.38 0-.38.38-.38 1 0 1.38l2.962 2.962c.375.375.295 1.086-.172 1.554-.47.468-1.18.547-1.554.173l-3.605-3.61c.515-.774.375-1.897-.39-2.664-.855-.855-2.172-.934-2.934-.17.763-.763.688-2.078-.17-2.935-.858-.855-2.172-.934-2.934-.172.762-.762.685-2.076-.174-2.932-.856-.858-2.17-.936-2.934-.174.764-.762.685-2.076-.172-2.935-.802-.802-1.997-.91-2.774-.3l-5.84-5.84c-.38-.38-1-.38-1.38 0-.38.38-.38 1 0 1.382l5.824 5.822L4.38 28c-.763.76-.686 2.074.173 2.933.856.856 2.17.935 2.933.172-.763.763-.685 2.076.173 2.934.855.854 2.17.935 2.933.172-.763.763-.686 2.076.172 2.933.858.858 2.172.936 2.934.174-.763.76-.686 2.073.172 2.932.857.856 2.17.935 2.934.172L18.63 38.6l3.58 3.58c1.144 1.144 3.077 1.064 4.315-.172.603-.603.925-1.373.97-2.135.762-.045 1.533-.368 2.135-.972.604-.602.928-1.372.974-2.134.76-.045 1.53-.367 2.135-.97.602-.605.925-1.374.97-2.137.762-.045 1.532-.367 2.136-.973 1.236-1.236 1.312-3.172.172-4.313l-1.51-1.51 6.2-6.2c.38-.38.38-1 0-1.38l-8.972-8.977zM46.43 12.49l-7.9-7.902c-.763-.763-2-.763-2.763 0l-2.762 2.76c-.762.762-.762 2 0 2.76l7.902 7.904c.763.762 2 .762 2.762 0l2.76-2.76c.76-.764.76-2 0-2.763zm-4.147 4.023c-.884 0-1.602-.717-1.602-1.602 0-.884.72-1.602 1.603-1.602.885 0 1.603.717 1.603 1.603 0 .885-.718 1.603-1.603 1.603z"/></g></svg>